/* XPM */
static char * minimize_pressed_xpm[] = {
"19 19 3 1",
" 	c None",
".	c #00EAFC",
"+	c #002B36",
"...................",
"...................",
"...................",
"...................",
"...................",
"...................",
"...................",
".....+++++++++.....",
"...................",
"...................",
"...................",
"...................",
"...................",
"...................",
"...................",
"...................",
"...................",
"+++++++++++++++++++",
"+++++++++++++++++++"};
