/* XPM */
static char * stuck_xpm[] = {
"19 19 2 1",
" 	c None",
".	c #00EAFC",
"                   ",
"                   ",
"                   ",
"                   ",
"                   ",
"       .....       ",
"        ...        ",
"        ...        ",
"        ...        ",
"        ...        ",
"       .....       ",
"         .         ",
"         .         ",
"         .         ",
"                   ",
"                   ",
"                   ",
"                   ",
"                   "};
