#define max_width 10
#define max_height 10
static unsigned char max_bits[] = {
   0x00, 0x00, 0xe0, 0x01, 0x00, 0x01, 0x40, 0x01, 0x20, 0x01, 0x12, 0x00,
   0x0a, 0x00, 0x02, 0x00, 0x1e, 0x00, 0x00, 0x00 };
