<?xml version="1.0" encoding="UTF-8" standalone="no"?>
<!-- Created with Inkscape (http://www.inkscape.org/) -->

<svg
   xmlns:dc="http://purl.org/dc/elements/1.1/"
   xmlns:cc="http://creativecommons.org/ns#"
   xmlns:rdf="http://www.w3.org/1999/02/22-rdf-syntax-ns#"
   xmlns:svg="http://www.w3.org/2000/svg"
   xmlns="http://www.w3.org/2000/svg"
   xmlns:xlink="http://www.w3.org/1999/xlink"
   xmlns:sodipodi="http://sodipodi.sourceforge.net/DTD/sodipodi-0.dtd"
   xmlns:inkscape="http://www.inkscape.org/namespaces/inkscape"
   width="19"
   height="19"
   id="svg4486"
   version="1.1"
   inkscape:version="0.48.4 r9939"
   viewBox="0 0 19 19"
   sodipodi:docname="unmaximize.svg">
  <defs
     id="defs4488">
    <linearGradient
       inkscape:collect="always"
       xlink:href="#linearGradient3759"
       id="linearGradient3765"
       x1="0.4416492"
       y1="3.0589638"
       x2="0.4416492"
       y2="8.148303"
       gradientUnits="userSpaceOnUse" />
    <linearGradient
       id="linearGradient3759">
      <stop
         style="stop-color:#000000;stop-opacity:0.27450982;"
         offset="0"
         id="stop3761" />
      <stop
         style="stop-color:#000000;stop-opacity:0;"
         offset="1"
         id="stop3763" />
    </linearGradient>
    <linearGradient
       y2="8.148303"
       x2="0.4416492"
       y1="3.0589638"
       x1="0.4416492"
       gradientUnits="userSpaceOnUse"
       id="linearGradient3782"
       xlink:href="#linearGradient3759"
       inkscape:collect="always" />
    <linearGradient
       inkscape:collect="always"
       xlink:href="#linearGradient4297"
       id="linearGradient3844"
       gradientUnits="userSpaceOnUse"
       gradientTransform="matrix(0,-1,1,0,-290.21429,-530.49914)"
       x1="-1070.3622"
       y1="8.9999962"
       x2="-1055.3622"
       y2="8.9999962" />
    <linearGradient
       inkscape:collect="always"
       id="linearGradient4297">
      <stop
         style="stop-color:#ffffff;stop-opacity:1;"
         offset="0"
         id="stop4523" />
      <stop
         style="stop-color:#000000;stop-opacity:1"
         offset="1"
         id="stop4525" />
    </linearGradient>
    <linearGradient
       inkscape:collect="always"
       xlink:href="#linearGradient4297"
       id="linearGradient3846"
       gradientUnits="userSpaceOnUse"
       gradientTransform="matrix(0,-1.0357118,1.0357118,0,-290.55355,-568.45584)"
       x1="-1070.1036"
       y1="9.4999952"
       x2="-1055.6208"
       y2="9.4999952" />
    <linearGradient
       y2="9.4999952"
       x2="-1055.6208"
       y1="9.4999952"
       x1="-1070.1036"
       gradientTransform="matrix(0,-1.0357118,1.0357118,0,-290.55355,-568.45584)"
       gradientUnits="userSpaceOnUse"
       id="linearGradient3901"
       xlink:href="#linearGradient4297"
       inkscape:collect="always" />
  </defs>
  <sodipodi:namedview
     id="base"
     pagecolor="#000000"
     bordercolor="#666666"
     borderopacity="1.0"
     inkscape:pageopacity="0.74117647"
     inkscape:pageshadow="2"
     inkscape:zoom="30.866498"
     inkscape:cx="5.8141783"
     inkscape:cy="9.0226074"
     inkscape:document-units="px"
     inkscape:current-layer="layer1"
     showgrid="false"
     fit-margin-top="0"
     fit-margin-left="0"
     fit-margin-right="0"
     fit-margin-bottom="0"
     inkscape:window-width="1623"
     inkscape:window-height="1026"
     inkscape:window-x="1107"
     inkscape:window-y="197"
     inkscape:window-maximized="1" />
  <metadata
     id="metadata4491">
    <rdf:RDF>
      <cc:Work
         rdf:about="">
        <dc:format>image/svg+xml</dc:format>
        <dc:type
           rdf:resource="http://purl.org/dc/dcmitype/StillImage" />
        <dc:title />
      </cc:Work>
    </rdf:RDF>
  </metadata>
  <g
     inkscape:label="Layer 1"
     inkscape:groupmode="layer"
     id="layer1"
     transform="translate(290.21429,-522.86219)">
    <g
       id="g3000">
      <circle
         transform="matrix(0.88235294,0,0,0.88235294,-289.09664,-405.45738)"
         r="8.5"
         cy="1062.8622"
         cx="9.4999924"
         id="circle4499"
         style="color:#000000;fill:#383734;fill-opacity:1;fill-rule:nonzero;stroke:none;stroke-width:8;marker:none;visibility:visible;display:inline;overflow:visible;enable-background:accumulate"
         d="m 17.999992,1062.8622 c 0,4.6944 -3.805579,8.5 -8.4999996,8.5 -4.6944204,0 -8.50000003,-3.8056 -8.50000003,-8.5 0,-4.6944 3.80557963,-8.5 8.50000003,-8.5 4.6944206,0 8.4999996,3.8056 8.4999996,8.5 z"
         sodipodi:cx="9.4999924"
         sodipodi:cy="1062.8622"
         sodipodi:rx="8.5"
         sodipodi:ry="8.5" />
      <rect
         style="color:#000000;fill:none;stroke:none;stroke-width:1;marker:none;visibility:visible;display:inline;overflow:visible;enable-background:accumulate"
         id="rect4203"
         width="19"
         height="19"
         x="-290.21429"
         y="522.86218" />
      <path
         transform="matrix(1.8757372,0,0,1.7904763,-274.79762,532.2295)"
         d="m 0.57755065,0.07410695 a 3.7318661,3.9095743 0 1 1 -7.46373225,0 3.7318661,3.9095743 0 1 1 7.46373225,0 z"
         sodipodi:ry="3.9095743"
         sodipodi:rx="3.7318661"
         sodipodi:cy="0.074106947"
         sodipodi:cx="-3.1543155"
         id="path2987"
         style="fill:#dcdcdc;fill-opacity:1;fill-rule:evenodd;stroke:none"
         sodipodi:type="arc" />
      <g
         transform="matrix(0.93333333,0,0,0.93333333,-18.714287,35.490814)"
         id="g3840">
        <path
           inkscape:connector-curvature="0"
           id="circle4503"
           d="m -288.21429,532.36219 c 0,4.1362 3.36379,7.5 7.5,7.5 4.13621,0 7.5,-3.3638 7.5,-7.5 0,-4.1362 -3.36379,-7.5 -7.5,-7.5 -4.13621,0 -7.5,3.3638 -7.5,7.5 z m 1,0 c 0,-3.5957 2.90423,-6.5 6.5,-6.5 3.59577,0 6.5,2.9043 6.5,6.5 0,3.5958 -2.90423,6.5 -6.5,6.5 -3.59577,0 -6.5,-2.9042 -6.5,-6.5 z"
           style="font-style:normal;font-variant:normal;font-weight:normal;font-stretch:normal;text-indent:0;text-align:start;text-decoration:none;line-height:normal;letter-spacing:normal;word-spacing:normal;text-transform:none;direction:ltr;block-progression:tb;writing-mode:lr-tb;text-anchor:start;baseline-shift:baseline;opacity:0.02999998;color:#000000;fill:url(#linearGradient3844);fill-opacity:1;stroke:none;stroke-width:1;marker:none;visibility:visible;display:inline;overflow:visible;enable-background:accumulate;font-family:sans-serif;-inkscape-font-specification:sans-serif" />
        <path
           inkscape:connector-curvature="0"
           id="circle4505"
           d="m -288.21429,532.36219 c 0,4.1392 3.36084,7.5 7.5,7.5 4.13916,0 7.5,-3.3608 7.5,-7.5 0,-4.1391 -3.36084,-7.5 -7.5,-7.5 -4.13916,0 -7.5,3.3609 -7.5,7.5 z m 0.5,0 c 0,-3.8689 3.13106,-7 7,-7 3.86894,0 7,3.1311 7,7 0,3.869 -3.13106,7 -7,7 -3.86894,0 -7,-3.131 -7,-7 z"
           style="font-style:normal;font-variant:normal;font-weight:normal;font-stretch:normal;text-indent:0;text-align:start;text-decoration:none;line-height:normal;letter-spacing:normal;word-spacing:normal;text-transform:none;direction:ltr;block-progression:tb;writing-mode:lr-tb;text-anchor:start;baseline-shift:baseline;opacity:0.02999998;color:#000000;fill:url(#linearGradient3901);fill-opacity:1;stroke:none;stroke-width:0.5;marker:none;visibility:visible;display:inline;overflow:visible;enable-background:accumulate;font-family:sans-serif;-inkscape-font-specification:sans-serif" />
      </g>
    </g>
  </g>
</svg>
