<?xml version="1.0" encoding="UTF-8" standalone="no"?>
<!-- Created with Inkscape (http://www.inkscape.org/) -->

<svg
   xmlns:dc="http://purl.org/dc/elements/1.1/"
   xmlns:cc="http://creativecommons.org/ns#"
   xmlns:rdf="http://www.w3.org/1999/02/22-rdf-syntax-ns#"
   xmlns:svg="http://www.w3.org/2000/svg"
   xmlns="http://www.w3.org/2000/svg"
   xmlns:sodipodi="http://sodipodi.sourceforge.net/DTD/sodipodi-0.dtd"
   xmlns:inkscape="http://www.inkscape.org/namespaces/inkscape"
   id="svg4486"
   height="19"
   viewBox="0 0 19 19"
   width="19"
   version="1.1"
   inkscape:version="0.48.4 r9939"
   sodipodi:docname="unmaximize_focused_prelight.svg">
  <sodipodi:namedview
     pagecolor="#3b3b3b"
     bordercolor="#666666"
     borderopacity="1"
     objecttolerance="10"
     gridtolerance="10"
     guidetolerance="10"
     inkscape:pageopacity="1"
     inkscape:pageshadow="2"
     inkscape:window-width="1623"
     inkscape:window-height="1026"
     id="namedview12"
     showgrid="false"
     inkscape:zoom="16.848476"
     inkscape:cx="1.150239"
     inkscape:cy="6.4783381"
     inkscape:window-x="1107"
     inkscape:window-y="197"
     inkscape:window-maximized="1"
     inkscape:current-layer="svg4486" />
  <defs
     id="defs4488">
    <filter
       id="filter4405"
       style="color-interpolation-filters:sRGB"
       height="1.24"
       width="1.24"
       y="-.12"
       x="-.12">
      <feGaussianBlur
         id="feGaussianBlur4407"
         stdDeviation="0.75" />
    </filter>
  </defs>
  <metadata
     id="metadata4491">
    <rdf:RDF>
      <cc:Work
         rdf:about="">
        <dc:format>image/svg+xml</dc:format>
        <dc:type
           rdf:resource="http://purl.org/dc/dcmitype/StillImage" />
        <dc:title />
      </cc:Work>
    </rdf:RDF>
  </metadata>
  <path
     id="path4403"
     d="m -10.949153,-16.677966 a 7.5,7.5 0 0 0 -7.5,7.5000002 7.5,7.5 0 0 0 7.5,7.4999997 7.5,7.5 0 0 0 7.5000004,-7.4999997 7.5,7.5 0 0 0 -7.5000004,-7.5000002 z m -3.5,5 h 7.0000004 v 5.0000002 h -7.0000004 v -4.5000002 -0.5 z m 1,1 v 3.0000002 h 5.0000004 v -3.0000002 h -5.0000004 z"
     style="color:#000000;fill:#ffffff;filter:url(#filter4405)"
     inkscape:connector-curvature="0" />
  <g
     id="g3810"
     transform="matrix(0.78947368,0,0,0.78947368,2,2.0000116)">
    <rect
       x="0"
       y="-1.4648437e-05"
       width="19"
       height="19"
       style="color:#000000;fill:none"
       id="rect4385" />
    <path
       id="path2996"
       d="M 9.5,1 C 4.8055797,1 1,4.8055797 1,9.5 1,14.19442 4.8055797,18 9.5,18 14.19442,18 18,14.19442 18,9.5 18,4.8055797 14.19442,1 9.5,1 z m -2.3125,6 3.625,0 C 11.4773,7 12,7.5227 12,8.1875 l 0,3.625 C 12,12.4773 11.4773,13 10.8125,13 l -3.625,0 C 6.5227,13 6,12.4773 6,11.8125 L 6,8.1875 C 6,7.5227 6.5227,7 7.1875,7 z"
       style="fill:#ffffff;fill-opacity:1;stroke:none"
       inkscape:connector-curvature="0" />
    <rect
       ry="1.2"
       y="5"
       x="8"
       height="6"
       width="6"
       id="rect3766-2"
       style="fill:#c8c8c8;fill-opacity:1;stroke:none" />
  </g>
</svg>
