<?xml version="1.0" encoding="UTF-8" standalone="no"?>
<!-- Created with Inkscape (http://www.inkscape.org/) -->

<svg
   xmlns:dc="http://purl.org/dc/elements/1.1/"
   xmlns:cc="http://creativecommons.org/ns#"
   xmlns:rdf="http://www.w3.org/1999/02/22-rdf-syntax-ns#"
   xmlns:svg="http://www.w3.org/2000/svg"
   xmlns="http://www.w3.org/2000/svg"
   xmlns:xlink="http://www.w3.org/1999/xlink"
   xmlns:sodipodi="http://sodipodi.sourceforge.net/DTD/sodipodi-0.dtd"
   xmlns:inkscape="http://www.inkscape.org/namespaces/inkscape"
   id="svg4486"
   height="19"
   viewBox="0 0 19 19"
   width="19"
   version="1.1"
   inkscape:version="0.48.4 r9939"
   sodipodi:docname="unmaximize_focused_pressed.svg">
  <defs
     id="defs10">
    <linearGradient
       inkscape:collect="always"
       xlink:href="#linearGradient4297"
       id="linearGradient3844"
       gradientUnits="userSpaceOnUse"
       gradientTransform="matrix(0,-1,1,0,-290.21429,-530.49914)"
       x1="-1070.3622"
       y1="8.9999962"
       x2="-1055.3622"
       y2="8.9999962" />
    <linearGradient
       inkscape:collect="always"
       id="linearGradient4297">
      <stop
         style="stop-color:#ffffff;stop-opacity:1;"
         offset="0"
         id="stop4523" />
      <stop
         style="stop-color:#000000;stop-opacity:1"
         offset="1"
         id="stop4525" />
    </linearGradient>
    <linearGradient
       inkscape:collect="always"
       xlink:href="#linearGradient4297"
       id="linearGradient3846"
       gradientUnits="userSpaceOnUse"
       gradientTransform="matrix(0,-1.0357118,1.0357118,0,-290.55355,-568.45584)"
       x1="-1070.1036"
       y1="9.4999952"
       x2="-1055.6208"
       y2="9.4999952" />
    <linearGradient
       y2="9.4999952"
       x2="-1055.6208"
       y1="9.4999952"
       x1="-1070.1036"
       gradientTransform="matrix(0,-1.0357118,1.0357118,0,-290.55355,-568.45584)"
       gradientUnits="userSpaceOnUse"
       id="linearGradient4023"
       xlink:href="#linearGradient4297"
       inkscape:collect="always" />
  </defs>
  <sodipodi:namedview
     pagecolor="#353535"
     bordercolor="#666666"
     borderopacity="1"
     objecttolerance="10"
     gridtolerance="10"
     guidetolerance="10"
     inkscape:pageopacity="1"
     inkscape:pageshadow="2"
     inkscape:window-width="809"
     inkscape:window-height="997"
     id="namedview8"
     showgrid="false"
     inkscape:zoom="12.421053"
     inkscape:cx="8.2521186"
     inkscape:cy="9.5"
     inkscape:window-x="1107"
     inkscape:window-y="197"
     inkscape:window-maximized="0"
     inkscape:current-layer="svg4486" />
  <metadata
     id="metadata4491">
    <rdf:RDF>
      <cc:Work
         rdf:about="">
        <dc:format>image/svg+xml</dc:format>
        <dc:type
           rdf:resource="http://purl.org/dc/dcmitype/StillImage" />
        <dc:title />
      </cc:Work>
    </rdf:RDF>
  </metadata>
  <rect
     id="rect4385"
     style="color:#000000;fill:none"
     height="19"
     width="19"
     y="0"
     x="0" />
  <path
     inkscape:connector-curvature="0"
     style="fill:#ffffff;fill-opacity:1;stroke:none;opacity:0.7"
     d="M 9.5,2 C 5.3578645,2 2,5.3578646 2,9.5000001 2,13.642135 5.3578645,17 9.5,17 13.642135,17 17,13.642135 17,9.5000001 17,5.3578646 13.642135,2 9.5,2 z m -2.0404411,5.2941175 3.1985291,0 c 0.586588,0 1.047794,0.4612059 1.047794,1.0477941 l 0,3.1985294 c 0,0.586588 -0.461206,1.047794 -1.047794,1.047794 l -3.1985291,0 c -0.5865883,0 -1.0477942,-0.461206 -1.0477942,-1.047794 l 0,-3.1985294 c 0,-0.5865882 0.4612059,-1.0477941 1.0477942,-1.0477941 z"
     id="path2996" />
  <rect
     style="fill:#969696;fill-opacity:1;stroke:none;opacity:1"
     id="rect3766-2"
     width="5.2941175"
     height="5.2941175"
     x="8.1764708"
     y="5.5294118"
     ry="1.0588236" />
  <g
     transform="translate(290.21429,-522.86219)"
     id="g3840">
    <path
       style="font-style:normal;font-variant:normal;font-weight:normal;font-stretch:normal;text-indent:0;text-align:start;text-decoration:none;line-height:normal;letter-spacing:normal;word-spacing:normal;text-transform:none;direction:ltr;block-progression:tb;writing-mode:lr-tb;text-anchor:start;baseline-shift:baseline;opacity:0.02999998;color:#000000;fill:url(#linearGradient3844);fill-opacity:1;stroke:none;stroke-width:1;marker:none;visibility:visible;display:inline;overflow:visible;enable-background:accumulate;font-family:sans-serif;-inkscape-font-specification:sans-serif"
       d="m -288.21429,532.36219 c 0,4.1362 3.36379,7.5 7.5,7.5 4.13621,0 7.5,-3.3638 7.5,-7.5 0,-4.1362 -3.36379,-7.5 -7.5,-7.5 -4.13621,0 -7.5,3.3638 -7.5,7.5 z m 1,0 c 0,-3.5957 2.90423,-6.5 6.5,-6.5 3.59577,0 6.5,2.9043 6.5,6.5 0,3.5958 -2.90423,6.5 -6.5,6.5 -3.59577,0 -6.5,-2.9042 -6.5,-6.5 z"
       id="circle4503"
       inkscape:connector-curvature="0" />
    <path
       style="font-style:normal;font-variant:normal;font-weight:normal;font-stretch:normal;text-indent:0;text-align:start;text-decoration:none;line-height:normal;letter-spacing:normal;word-spacing:normal;text-transform:none;direction:ltr;block-progression:tb;writing-mode:lr-tb;text-anchor:start;baseline-shift:baseline;opacity:0.02999998;color:#000000;fill:url(#linearGradient4023);fill-opacity:1;stroke:none;stroke-width:0.5;marker:none;visibility:visible;display:inline;overflow:visible;enable-background:accumulate;font-family:sans-serif;-inkscape-font-specification:sans-serif"
       d="m -288.21429,532.36219 c 0,4.1392 3.36084,7.5 7.5,7.5 4.13916,0 7.5,-3.3608 7.5,-7.5 0,-4.1391 -3.36084,-7.5 -7.5,-7.5 -4.13916,0 -7.5,3.3609 -7.5,7.5 z m 0.5,0 c 0,-3.8689 3.13106,-7 7,-7 3.86894,0 7,3.1311 7,7 0,3.869 -3.13106,7 -7,7 -3.86894,0 -7,-3.131 -7,-7 z"
       id="circle4505"
       inkscape:connector-curvature="0" />
  </g>
</svg>
