<?xml version="1.0" encoding="UTF-8" standalone="no"?>
<!-- Created with Inkscape (http://www.inkscape.org/) -->

<svg
   xmlns:dc="http://purl.org/dc/elements/1.1/"
   xmlns:cc="http://creativecommons.org/ns#"
   xmlns:rdf="http://www.w3.org/1999/02/22-rdf-syntax-ns#"
   xmlns:svg="http://www.w3.org/2000/svg"
   xmlns="http://www.w3.org/2000/svg"
   xmlns:xlink="http://www.w3.org/1999/xlink"
   xmlns:sodipodi="http://sodipodi.sourceforge.net/DTD/sodipodi-0.dtd"
   xmlns:inkscape="http://www.inkscape.org/namespaces/inkscape"
   width="19"
   height="19"
   id="svg4486"
   version="1.1"
   inkscape:version="0.48.4 r9939"
   viewBox="0 0 19 19"
   sodipodi:docname="minimize_unfocused_pressed.svg">
  <defs
     id="defs4488">
    <linearGradient
       inkscape:collect="always"
       xlink:href="#linearGradient4297"
       id="linearGradient3844"
       gradientUnits="userSpaceOnUse"
       gradientTransform="matrix(0,-1,1,0,-290.21429,-530.49914)"
       x1="-1070.3622"
       y1="8.9999962"
       x2="-1055.3622"
       y2="8.9999962" />
    <linearGradient
       inkscape:collect="always"
       id="linearGradient4297">
      <stop
         style="stop-color:#ffffff;stop-opacity:1;"
         offset="0"
         id="stop4523" />
      <stop
         style="stop-color:#000000;stop-opacity:1"
         offset="1"
         id="stop4525" />
    </linearGradient>
    <linearGradient
       inkscape:collect="always"
       xlink:href="#linearGradient4297"
       id="linearGradient3846"
       gradientUnits="userSpaceOnUse"
       gradientTransform="matrix(0,-1.0357118,1.0357118,0,-290.55355,-568.45584)"
       x1="-1070.1036"
       y1="9.4999952"
       x2="-1055.6208"
       y2="9.4999952" />
    <linearGradient
       y2="9.4999952"
       x2="-1055.6208"
       y1="9.4999952"
       x1="-1070.1036"
       gradientTransform="matrix(0,-1.0357118,1.0357118,0,-290.55355,-568.45584)"
       gradientUnits="userSpaceOnUse"
       id="linearGradient3997"
       xlink:href="#linearGradient4297"
       inkscape:collect="always" />
  </defs>
  <sodipodi:namedview
     id="base"
     pagecolor="#424242"
     bordercolor="#666666"
     borderopacity="1.0"
     inkscape:pageopacity="1"
     inkscape:pageshadow="2"
     inkscape:zoom="11.254423"
     inkscape:cx="-2.527882"
     inkscape:cy="18.701097"
     inkscape:document-units="px"
     inkscape:current-layer="layer1"
     showgrid="false"
     fit-margin-top="0"
     fit-margin-left="0"
     fit-margin-right="0"
     fit-margin-bottom="0"
     inkscape:window-width="809"
     inkscape:window-height="997"
     inkscape:window-x="1107"
     inkscape:window-y="197"
     inkscape:window-maximized="0" />
  <metadata
     id="metadata4491">
    <rdf:RDF>
      <cc:Work
         rdf:about="">
        <dc:format>image/svg+xml</dc:format>
        <dc:type
           rdf:resource="http://purl.org/dc/dcmitype/StillImage" />
        <dc:title />
      </cc:Work>
    </rdf:RDF>
  </metadata>
  <g
     inkscape:label="Layer 1"
     inkscape:groupmode="layer"
     id="layer1"
     transform="translate(290.21429,-522.86219)">
    <path
       inkscape:connector-curvature="0"
       style="color:#000000;fill:#d2d2d2;fill-opacity:1;fill-rule:nonzero;stroke:none;stroke-width:8;marker:none;visibility:visible;display:inline;overflow:visible;enable-background:accumulate;opacity:0.7"
       d="m -280.71429,524.86219 a 7.4999794,7.4999794 0 0 0 -7.5,7.5 7.4999794,7.4999794 0 0 0 7.5,7.5 7.4999794,7.4999794 0 0 0 7.5,-7.5 7.4999794,7.4999794 0 0 0 -7.5,-7.5 z m -3.14338,6.17647 6.28676,0 c 0.70639,0 1.26838,0.56199 1.26838,1.26838 l 0,0.1103 c 0,0.70638 -0.56199,1.26838 -1.26838,1.26838 l -6.28676,0 c -0.70639,0 -1.26838,-0.562 -1.26838,-1.26838 l 0,-0.1103 c 0,-0.70639 0.56199,-1.26838 1.26838,-1.26838 z"
       id="path4267" />
    <rect
       y="522.86218"
       x="-290.21429"
       height="19"
       width="19"
       id="rect4269"
       style="color:#000000;fill:none;stroke:none;stroke-width:1;marker:none;visibility:visible;display:inline;overflow:visible;enable-background:accumulate" />
    <g
       id="g3840">
      <path
         style="font-style:normal;font-variant:normal;font-weight:normal;font-stretch:normal;text-indent:0;text-align:start;text-decoration:none;line-height:normal;letter-spacing:normal;word-spacing:normal;text-transform:none;direction:ltr;block-progression:tb;writing-mode:lr-tb;text-anchor:start;baseline-shift:baseline;opacity:0.02999998;color:#000000;fill:url(#linearGradient3844);fill-opacity:1;stroke:none;stroke-width:1;marker:none;visibility:visible;display:inline;overflow:visible;enable-background:accumulate;font-family:sans-serif;-inkscape-font-specification:sans-serif"
         d="m -288.21429,532.36219 c 0,4.1362 3.36379,7.5 7.5,7.5 4.13621,0 7.5,-3.3638 7.5,-7.5 0,-4.1362 -3.36379,-7.5 -7.5,-7.5 -4.13621,0 -7.5,3.3638 -7.5,7.5 z m 1,0 c 0,-3.5957 2.90423,-6.5 6.5,-6.5 3.59577,0 6.5,2.9043 6.5,6.5 0,3.5958 -2.90423,6.5 -6.5,6.5 -3.59577,0 -6.5,-2.9042 -6.5,-6.5 z"
         id="circle4503"
         inkscape:connector-curvature="0" />
      <path
         style="font-style:normal;font-variant:normal;font-weight:normal;font-stretch:normal;text-indent:0;text-align:start;text-decoration:none;line-height:normal;letter-spacing:normal;word-spacing:normal;text-transform:none;direction:ltr;block-progression:tb;writing-mode:lr-tb;text-anchor:start;baseline-shift:baseline;opacity:0.02999998;color:#000000;fill:url(#linearGradient3997);fill-opacity:1;stroke:none;stroke-width:0.5;marker:none;visibility:visible;display:inline;overflow:visible;enable-background:accumulate;font-family:sans-serif;-inkscape-font-specification:sans-serif"
         d="m -288.21429,532.36219 c 0,4.1392 3.36084,7.5 7.5,7.5 4.13916,0 7.5,-3.3608 7.5,-7.5 0,-4.1391 -3.36084,-7.5 -7.5,-7.5 -4.13916,0 -7.5,3.3609 -7.5,7.5 z m 0.5,0 c 0,-3.8689 3.13106,-7 7,-7 3.86894,0 7,3.1311 7,7 0,3.869 -3.13106,7 -7,7 -3.86894,0 -7,-3.131 -7,-7 z"
         id="circle4505"
         inkscape:connector-curvature="0" />
    </g>
  </g>
</svg>
